<mxfile host="Electron" modified="2024-02-01T02:47:38.517Z" agent="Mozilla/5.0 (Windows NT 10.0; Win64; x64) AppleWebKit/537.36 (KHTML, like Gecko) draw.io/23.0.2 Chrome/120.0.6099.109 Electron/28.1.0 Safari/537.36" etag="haKnPib0M3Ryoyvjkam3" version="23.0.2" type="device" pages="2">
  <diagram name="ver.1.0.0" id="vMZHCt8mvl8RS5KxGxzD">
    <mxGraphModel dx="1909" dy="1129" grid="1" gridSize="10" guides="1" tooltips="1" connect="1" arrows="1" fold="1" page="1" pageScale="1" pageWidth="827" pageHeight="1169" math="0" shadow="0">
      <root>
        <mxCell id="0" />
        <mxCell id="1" parent="0" />
        <mxCell id="fAvSHpzLvbz1eBBrM9su-1" value="&lt;p style=&quot;line-height: 100%;&quot;&gt;クラス図の仕様リスト&lt;/p&gt;" style="swimlane;whiteSpace=wrap;html=1;swimlaneFillColor=default;" parent="1" vertex="1">
          <mxGeometry x="50" y="39" width="650" height="1130" as="geometry" />
        </mxCell>
        <mxCell id="fAvSHpzLvbz1eBBrM9su-2" value="ーはプライベート&#xa;＝はプロテクト&#xa;＋はパブリック" style="swimlane;startSize=0;swimlaneFillColor=default;verticalAlign=top;align=center;fontSize=16;" parent="fAvSHpzLvbz1eBBrM9su-1" vertex="1">
          <mxGeometry x="324" y="120" width="200" height="80" as="geometry" />
        </mxCell>
        <mxCell id="fAvSHpzLvbz1eBBrM9su-3" value="&lt;p style=&quot;line-height: 100%;&quot;&gt;&lt;font style=&quot;font-size: 12px;&quot;&gt;Template Of Class Box&lt;br&gt;クラスの箱の定型の形&lt;/font&gt;&lt;/p&gt;" style="swimlane;whiteSpace=wrap;html=1;swimlaneFillColor=default;" parent="fAvSHpzLvbz1eBBrM9su-1" vertex="1">
          <mxGeometry x="40" y="80" width="210" height="160" as="geometry" />
        </mxCell>
        <mxCell id="fAvSHpzLvbz1eBBrM9su-4" value="パラメータ" style="swimlane;fontStyle=0;childLayout=stackLayout;horizontal=1;startSize=25;horizontalStack=0;resizeParent=1;resizeParentMax=0;resizeLast=0;collapsible=1;marginBottom=0;whiteSpace=wrap;html=1;" parent="fAvSHpzLvbz1eBBrM9su-3" vertex="1">
          <mxGeometry x="10" y="30" width="190" height="55" as="geometry" />
        </mxCell>
        <mxCell id="fAvSHpzLvbz1eBBrM9su-5" value="パラメータ１" style="text;strokeColor=none;fillColor=none;align=left;verticalAlign=middle;spacingLeft=4;spacingRight=4;overflow=hidden;points=[[0,0.5],[1,0.5]];portConstraint=eastwest;rotatable=0;whiteSpace=wrap;html=1;" parent="fAvSHpzLvbz1eBBrM9su-4" vertex="1">
          <mxGeometry y="25" width="190" height="30" as="geometry" />
        </mxCell>
        <mxCell id="fAvSHpzLvbz1eBBrM9su-6" value="メゾッド" style="swimlane;fontStyle=0;childLayout=stackLayout;horizontal=1;startSize=25;horizontalStack=0;resizeParent=1;resizeParentMax=0;resizeLast=0;collapsible=1;marginBottom=0;whiteSpace=wrap;html=1;" parent="fAvSHpzLvbz1eBBrM9su-3" vertex="1">
          <mxGeometry x="10" y="100" width="190" height="55" as="geometry" />
        </mxCell>
        <mxCell id="fAvSHpzLvbz1eBBrM9su-7" value="メゾッド１" style="text;strokeColor=none;fillColor=none;align=left;verticalAlign=middle;spacingLeft=4;spacingRight=4;overflow=hidden;points=[[0,0.5],[1,0.5]];portConstraint=eastwest;rotatable=0;whiteSpace=wrap;html=1;" parent="fAvSHpzLvbz1eBBrM9su-6" vertex="1">
          <mxGeometry y="25" width="190" height="30" as="geometry" />
        </mxCell>
        <mxCell id="fAvSHpzLvbz1eBBrM9su-8" value="全てのクラスに設計評価を付ける&#xa;評価段階は以下&#xa;&#xa;１．正常&#xa;・現状の設計は十分に稼働する&#xa;&#xa;２．修正点あり&#xa;・動作自体に問題はないが、&#xa;バグを生み出しやすい設計であったり&#xa;整合性に問題のある設計であったりと&#xa;ミスリードを作り出しかねない設計&#xa;&#xa;３．問題あり&#xa;・実行時の動作に問題がある&#xa;上位層に依存しているなど&#xa;設計上でバグが存在したり、&#xa;バグの発見が難しい環境である状態&#xa;&#xa;４．上位層へ依存&#xa;・上位の層へ依存しており、&#xa;上位層との循環依存関係&#xa;が生まれてしまっている状態" style="swimlane;startSize=0;swimlaneFillColor=default;verticalAlign=top;fontSize=20;" parent="fAvSHpzLvbz1eBBrM9su-1" vertex="1">
          <mxGeometry x="90" y="290" width="425" height="600" as="geometry" />
        </mxCell>
        <mxCell id="fAvSHpzLvbz1eBBrM9su-92" value="現在の設計評価　：正常" style="swimlane;whiteSpace=wrap;html=1;swimlaneFillColor=default;fontSize=17;" parent="fAvSHpzLvbz1eBBrM9su-1" vertex="1">
          <mxGeometry x="95" y="981" width="460" height="60" as="geometry" />
        </mxCell>
        <mxCell id="fAvSHpzLvbz1eBBrM9su-93" value="" style="rounded=0;whiteSpace=wrap;html=1;align=left;verticalAlign=top;" parent="fAvSHpzLvbz1eBBrM9su-92" vertex="1">
          <mxGeometry x="10" y="30" width="440" height="30" as="geometry" />
        </mxCell>
        <mxCell id="fAvSHpzLvbz1eBBrM9su-9" value="上位層" style="rounded=0;whiteSpace=wrap;html=1;fontSize=36;" parent="1" vertex="1">
          <mxGeometry x="1210" y="20" width="990" height="170" as="geometry" />
        </mxCell>
        <mxCell id="fAvSHpzLvbz1eBBrM9su-10" value="プラットフォーム独立層　ネームスペース＜PLATFORM＞" style="swimlane;whiteSpace=wrap;html=1;swimlaneFillColor=default;startSize=23;" parent="1" vertex="1">
          <mxGeometry x="890" y="350" width="1630" height="1190" as="geometry" />
        </mxCell>
        <mxCell id="tP35qiG5Cu7pbc8sIJzn-55" value="プラットフォーム検出部　ネームスペース＜PLATFORM::DETECTION＞　　　　　" style="swimlane;whiteSpace=wrap;html=1;swimlaneFillColor=default;fontSize=17;align=right;" vertex="1" parent="fAvSHpzLvbz1eBBrM9su-10">
          <mxGeometry x="325" y="680" width="1195" height="437.5" as="geometry" />
        </mxCell>
        <mxCell id="fAvSHpzLvbz1eBBrM9su-42" value="現在の設計評価　：正常" style="swimlane;whiteSpace=wrap;html=1;swimlaneFillColor=default;fontSize=17;" parent="tP35qiG5Cu7pbc8sIJzn-55" vertex="1">
          <mxGeometry x="675" y="210" width="460" height="60" as="geometry" />
        </mxCell>
        <mxCell id="fAvSHpzLvbz1eBBrM9su-43" value="" style="rounded=0;whiteSpace=wrap;html=1;align=left;verticalAlign=top;" parent="fAvSHpzLvbz1eBBrM9su-42" vertex="1">
          <mxGeometry x="20" y="30" width="420" height="30" as="geometry" />
        </mxCell>
        <mxCell id="fAvSHpzLvbz1eBBrM9su-11" value="&lt;p style=&quot;line-height: 100%;&quot;&gt;プラットフォーム検出・判定システム　C_Platform_Detection_System&lt;br&gt;&lt;/p&gt;" style="swimlane;whiteSpace=wrap;html=1;swimlaneFillColor=default;" parent="fAvSHpzLvbz1eBBrM9su-10" vertex="1">
          <mxGeometry x="365" y="765" width="560" height="310" as="geometry" />
        </mxCell>
        <mxCell id="fAvSHpzLvbz1eBBrM9su-12" value="パラメータ" style="swimlane;fontStyle=0;childLayout=stackLayout;horizontal=1;startSize=25;horizontalStack=0;resizeParent=1;resizeParentMax=0;resizeLast=0;collapsible=1;marginBottom=0;whiteSpace=wrap;html=1;" parent="fAvSHpzLvbz1eBBrM9su-11" vertex="1">
          <mxGeometry x="10" y="30" width="540" height="115" as="geometry" />
        </mxCell>
        <mxCell id="fAvSHpzLvbz1eBBrM9su-13" value="ー　コンストラクタ起動用用のシングルトンインスタンス" style="text;strokeColor=none;fillColor=none;align=left;verticalAlign=middle;spacingLeft=4;spacingRight=4;overflow=hidden;points=[[0,0.5],[1,0.5]];portConstraint=eastwest;rotatable=0;whiteSpace=wrap;html=1;" parent="fAvSHpzLvbz1eBBrM9su-12" vertex="1">
          <mxGeometry y="25" width="540" height="30" as="geometry" />
        </mxCell>
        <mxCell id="fAvSHpzLvbz1eBBrM9su-14" value="ー　OSの種類を指定する番号" style="text;strokeColor=none;fillColor=none;align=left;verticalAlign=middle;spacingLeft=4;spacingRight=4;overflow=hidden;points=[[0,0.5],[1,0.5]];portConstraint=eastwest;rotatable=0;whiteSpace=wrap;html=1;" parent="fAvSHpzLvbz1eBBrM9su-12" vertex="1">
          <mxGeometry y="55" width="540" height="30" as="geometry" />
        </mxCell>
        <mxCell id="fAvSHpzLvbz1eBBrM9su-15" value="ー　レンダリングAPIの種類を指定する番号" style="text;strokeColor=none;fillColor=none;align=left;verticalAlign=middle;spacingLeft=4;spacingRight=4;overflow=hidden;points=[[0,0.5],[1,0.5]];portConstraint=eastwest;rotatable=0;whiteSpace=wrap;html=1;" parent="fAvSHpzLvbz1eBBrM9su-12" vertex="1">
          <mxGeometry y="85" width="540" height="30" as="geometry" />
        </mxCell>
        <mxCell id="fAvSHpzLvbz1eBBrM9su-18" value="メゾッド" style="swimlane;fontStyle=0;childLayout=stackLayout;horizontal=1;startSize=25;horizontalStack=0;resizeParent=1;resizeParentMax=0;resizeLast=0;collapsible=1;marginBottom=0;whiteSpace=wrap;html=1;" parent="fAvSHpzLvbz1eBBrM9su-11" vertex="1">
          <mxGeometry x="10" y="150" width="540" height="145" as="geometry" />
        </mxCell>
        <mxCell id="fAvSHpzLvbz1eBBrM9su-19" value="ー　コンストラクタ" style="text;strokeColor=none;fillColor=none;align=left;verticalAlign=middle;spacingLeft=4;spacingRight=4;overflow=hidden;points=[[0,0.5],[1,0.5]];portConstraint=eastwest;rotatable=0;whiteSpace=wrap;html=1;" parent="fAvSHpzLvbz1eBBrM9su-18" vertex="1">
          <mxGeometry y="25" width="540" height="30" as="geometry" />
        </mxCell>
        <mxCell id="fAvSHpzLvbz1eBBrM9su-20" value="＋　OSの種類を指定する番号のゲッタ　＜静的関数＞" style="text;strokeColor=none;fillColor=none;align=left;verticalAlign=middle;spacingLeft=4;spacingRight=4;overflow=hidden;points=[[0,0.5],[1,0.5]];portConstraint=eastwest;rotatable=0;whiteSpace=wrap;html=1;" parent="fAvSHpzLvbz1eBBrM9su-18" vertex="1">
          <mxGeometry y="55" width="540" height="30" as="geometry" />
        </mxCell>
        <mxCell id="fAvSHpzLvbz1eBBrM9su-21" value="＋　レンダリングAPIの種類を指定する番号のゲッタ　＜静的関数＞" style="text;strokeColor=none;fillColor=none;align=left;verticalAlign=middle;spacingLeft=4;spacingRight=4;overflow=hidden;points=[[0,0.5],[1,0.5]];portConstraint=eastwest;rotatable=0;whiteSpace=wrap;html=1;" parent="fAvSHpzLvbz1eBBrM9su-18" vertex="1">
          <mxGeometry y="85" width="540" height="30" as="geometry" />
        </mxCell>
        <mxCell id="FWNo39B8IeVS8UjTxi9l-3" value="＋　レンダリングAPIの種類を指定する番号のセッタ　＜静的関数＞" style="text;strokeColor=none;fillColor=none;align=left;verticalAlign=middle;spacingLeft=4;spacingRight=4;overflow=hidden;points=[[0,0.5],[1,0.5]];portConstraint=eastwest;rotatable=0;whiteSpace=wrap;html=1;" parent="fAvSHpzLvbz1eBBrM9su-18" vertex="1">
          <mxGeometry y="115" width="540" height="30" as="geometry" />
        </mxCell>
        <mxCell id="fAvSHpzLvbz1eBBrM9su-44" value="" style="shape=link;html=1;rounded=0;entryX=0;entryY=0.5;entryDx=0;entryDy=0;exitX=1;exitY=0.5;exitDx=0;exitDy=0;" parent="fAvSHpzLvbz1eBBrM9su-10" source="fAvSHpzLvbz1eBBrM9su-11" target="fAvSHpzLvbz1eBBrM9su-42" edge="1">
          <mxGeometry width="100" relative="1" as="geometry">
            <mxPoint x="3036" y="2375" as="sourcePoint" />
            <mxPoint x="3136" y="2375" as="targetPoint" />
          </mxGeometry>
        </mxCell>
        <mxCell id="FWNo39B8IeVS8UjTxi9l-4" value="&lt;p style=&quot;line-height: 90%;&quot;&gt;&lt;font style=&quot;font-size: 11px;&quot;&gt;OS制御システムとレンダリングAPI用システムの生成、削除を行うシステム　C_API_Initialize_And_Release_Manager&lt;/font&gt;&lt;br&gt;&lt;/p&gt;" style="swimlane;whiteSpace=wrap;html=1;swimlaneFillColor=default;startSize=23;" parent="fAvSHpzLvbz1eBBrM9su-10" vertex="1">
          <mxGeometry x="365" y="130" width="560" height="340" as="geometry" />
        </mxCell>
        <mxCell id="FWNo39B8IeVS8UjTxi9l-5" value="パラメータ" style="swimlane;fontStyle=0;childLayout=stackLayout;horizontal=1;startSize=25;horizontalStack=0;resizeParent=1;resizeParentMax=0;resizeLast=0;collapsible=1;marginBottom=0;whiteSpace=wrap;html=1;" parent="FWNo39B8IeVS8UjTxi9l-4" vertex="1">
          <mxGeometry x="10" y="30" width="540" height="55" as="geometry" />
        </mxCell>
        <mxCell id="FWNo39B8IeVS8UjTxi9l-9" value="メゾッド" style="swimlane;fontStyle=0;childLayout=stackLayout;horizontal=1;startSize=25;horizontalStack=0;resizeParent=1;resizeParentMax=0;resizeLast=0;collapsible=1;marginBottom=0;whiteSpace=wrap;html=1;" parent="FWNo39B8IeVS8UjTxi9l-4" vertex="1">
          <mxGeometry x="10" y="105" width="540" height="205" as="geometry" />
        </mxCell>
        <mxCell id="FWNo39B8IeVS8UjTxi9l-10" value="ー　コンストラクタ、インスタンス化できなくするために隠蔽" style="text;strokeColor=none;fillColor=none;align=left;verticalAlign=middle;spacingLeft=4;spacingRight=4;overflow=hidden;points=[[0,0.5],[1,0.5]];portConstraint=eastwest;rotatable=0;whiteSpace=wrap;html=1;" parent="FWNo39B8IeVS8UjTxi9l-9" vertex="1">
          <mxGeometry y="25" width="540" height="30" as="geometry" />
        </mxCell>
        <mxCell id="FWNo39B8IeVS8UjTxi9l-21" value="＋　デストラクタ" style="text;strokeColor=none;fillColor=none;align=left;verticalAlign=middle;spacingLeft=4;spacingRight=4;overflow=hidden;points=[[0,0.5],[1,0.5]];portConstraint=eastwest;rotatable=0;whiteSpace=wrap;html=1;" parent="FWNo39B8IeVS8UjTxi9l-9" vertex="1">
          <mxGeometry y="55" width="540" height="30" as="geometry" />
        </mxCell>
        <mxCell id="FWNo39B8IeVS8UjTxi9l-11" value="＋　OS制御用システムの初期化　＜静的関数＞" style="text;strokeColor=none;fillColor=none;align=left;verticalAlign=middle;spacingLeft=4;spacingRight=4;overflow=hidden;points=[[0,0.5],[1,0.5]];portConstraint=eastwest;rotatable=0;whiteSpace=wrap;html=1;" parent="FWNo39B8IeVS8UjTxi9l-9" vertex="1">
          <mxGeometry y="85" width="540" height="30" as="geometry" />
        </mxCell>
        <mxCell id="FWNo39B8IeVS8UjTxi9l-18" value="＋　OS制御用システムの生成　＜静的関数＞" style="text;strokeColor=none;fillColor=none;align=left;verticalAlign=middle;spacingLeft=4;spacingRight=4;overflow=hidden;points=[[0,0.5],[1,0.5]];portConstraint=eastwest;rotatable=0;whiteSpace=wrap;html=1;" parent="FWNo39B8IeVS8UjTxi9l-9" vertex="1">
          <mxGeometry y="115" width="540" height="30" as="geometry" />
        </mxCell>
        <mxCell id="FWNo39B8IeVS8UjTxi9l-19" value="＋　レンダリングAPIの初期化　＜静的関数＞" style="text;strokeColor=none;fillColor=none;align=left;verticalAlign=middle;spacingLeft=4;spacingRight=4;overflow=hidden;points=[[0,0.5],[1,0.5]];portConstraint=eastwest;rotatable=0;whiteSpace=wrap;html=1;" parent="FWNo39B8IeVS8UjTxi9l-9" vertex="1">
          <mxGeometry y="145" width="540" height="30" as="geometry" />
        </mxCell>
        <mxCell id="FWNo39B8IeVS8UjTxi9l-22" value="＋　レンダリングAPIとOS制御用システムの解放　＜静的関数＞" style="text;strokeColor=none;fillColor=none;align=left;verticalAlign=middle;spacingLeft=4;spacingRight=4;overflow=hidden;points=[[0,0.5],[1,0.5]];portConstraint=eastwest;rotatable=0;whiteSpace=wrap;html=1;" parent="FWNo39B8IeVS8UjTxi9l-9" vertex="1">
          <mxGeometry y="175" width="540" height="30" as="geometry" />
        </mxCell>
        <mxCell id="FWNo39B8IeVS8UjTxi9l-14" value="" style="endArrow=classic;html=1;rounded=0;strokeWidth=8;exitX=0.5;exitY=1;exitDx=0;exitDy=0;entryX=0.5;entryY=0;entryDx=0;entryDy=0;" parent="fAvSHpzLvbz1eBBrM9su-10" source="FWNo39B8IeVS8UjTxi9l-4" target="fAvSHpzLvbz1eBBrM9su-11" edge="1">
          <mxGeometry width="50" height="50" relative="1" as="geometry">
            <mxPoint x="971" y="609" as="sourcePoint" />
            <mxPoint x="790" y="360" as="targetPoint" />
            <Array as="points" />
          </mxGeometry>
        </mxCell>
        <mxCell id="FWNo39B8IeVS8UjTxi9l-15" value="現在の設計評価　：修正点あり" style="swimlane;whiteSpace=wrap;html=1;swimlaneFillColor=default;fontSize=17;" parent="fAvSHpzLvbz1eBBrM9su-10" vertex="1">
          <mxGeometry x="1080" y="197.5" width="460" height="205" as="geometry" />
        </mxCell>
        <mxCell id="FWNo39B8IeVS8UjTxi9l-16" value="１．クラス名を修正すべき&lt;br&gt;　　C_OS_Manager_And_Rendering_API_Initilize_And_Release_System&lt;br&gt;&lt;br&gt;２．初期化用の関数を一つの関数にまとめること&lt;br&gt;&lt;br&gt;３．インスタンス化できないのでデストラクタはなくす" style="rounded=0;whiteSpace=wrap;html=1;align=left;verticalAlign=top;" parent="FWNo39B8IeVS8UjTxi9l-15" vertex="1">
          <mxGeometry x="20" y="30" width="420" height="170" as="geometry" />
        </mxCell>
        <mxCell id="FWNo39B8IeVS8UjTxi9l-17" value="" style="shape=link;html=1;rounded=0;entryX=0;entryY=0.5;entryDx=0;entryDy=0;exitX=1;exitY=0.5;exitDx=0;exitDy=0;" parent="fAvSHpzLvbz1eBBrM9su-10" source="FWNo39B8IeVS8UjTxi9l-4" target="FWNo39B8IeVS8UjTxi9l-15" edge="1">
          <mxGeometry width="100" relative="1" as="geometry">
            <mxPoint x="925" y="270" as="sourcePoint" />
            <mxPoint x="3136" y="1725" as="targetPoint" />
          </mxGeometry>
        </mxCell>
        <mxCell id="fAvSHpzLvbz1eBBrM9su-91" value="" style="endArrow=classic;html=1;rounded=0;exitX=0.5;exitY=1;exitDx=0;exitDy=0;entryX=0.5;entryY=0;entryDx=0;entryDy=0;strokeWidth=8;" parent="1" source="fAvSHpzLvbz1eBBrM9su-9" target="fAvSHpzLvbz1eBBrM9su-10" edge="1">
          <mxGeometry width="50" height="50" relative="1" as="geometry">
            <mxPoint x="2945" y="50" as="sourcePoint" />
            <mxPoint x="2300" y="740" as="targetPoint" />
            <Array as="points" />
          </mxGeometry>
        </mxCell>
        <mxCell id="FWNo39B8IeVS8UjTxi9l-1" value="下位層&lt;br&gt;プラットフォーム部&lt;br&gt;レンダリング部" style="rounded=0;whiteSpace=wrap;html=1;fontSize=36;" parent="1" vertex="1">
          <mxGeometry x="1210" y="1730" width="990" height="170" as="geometry" />
        </mxCell>
        <mxCell id="FWNo39B8IeVS8UjTxi9l-2" value="" style="endArrow=classic;html=1;rounded=0;strokeWidth=8;exitX=0.5;exitY=1;exitDx=0;exitDy=0;entryX=0.5;entryY=0;entryDx=0;entryDy=0;" parent="1" source="fAvSHpzLvbz1eBBrM9su-10" target="FWNo39B8IeVS8UjTxi9l-1" edge="1">
          <mxGeometry width="50" height="50" relative="1" as="geometry">
            <mxPoint x="1610" y="3530" as="sourcePoint" />
            <mxPoint x="1850" y="1770" as="targetPoint" />
            <Array as="points" />
          </mxGeometry>
        </mxCell>
      </root>
    </mxGraphModel>
  </diagram>
  <diagram id="oGims7r4UwM5HtOU4kUQ" name="ver.2.0.0">
    <mxGraphModel dx="7000" dy="4140" grid="1" gridSize="10" guides="1" tooltips="1" connect="1" arrows="1" fold="1" page="1" pageScale="1" pageWidth="827" pageHeight="1169" math="0" shadow="0">
      <root>
        <mxCell id="0" />
        <mxCell id="1" parent="0" />
        <mxCell id="KJogN0Vjg7Z09fQVdOCW-1" value="&lt;p style=&quot;line-height: 100%;&quot;&gt;クラス図の仕様リスト&lt;/p&gt;" style="swimlane;whiteSpace=wrap;html=1;swimlaneFillColor=default;" vertex="1" parent="1">
          <mxGeometry x="50" y="39" width="650" height="1130" as="geometry" />
        </mxCell>
        <mxCell id="KJogN0Vjg7Z09fQVdOCW-2" value="ーはプライベート&#xa;＝はプロテクト&#xa;＋はパブリック" style="swimlane;startSize=0;swimlaneFillColor=default;verticalAlign=top;align=center;fontSize=16;" vertex="1" parent="KJogN0Vjg7Z09fQVdOCW-1">
          <mxGeometry x="324" y="120" width="200" height="80" as="geometry" />
        </mxCell>
        <mxCell id="KJogN0Vjg7Z09fQVdOCW-3" value="&lt;p style=&quot;line-height: 100%;&quot;&gt;&lt;font style=&quot;font-size: 12px;&quot;&gt;Template Of Class Box&lt;br&gt;クラスの箱の定型の形&lt;/font&gt;&lt;/p&gt;" style="swimlane;whiteSpace=wrap;html=1;swimlaneFillColor=default;" vertex="1" parent="KJogN0Vjg7Z09fQVdOCW-1">
          <mxGeometry x="40" y="80" width="210" height="160" as="geometry" />
        </mxCell>
        <mxCell id="KJogN0Vjg7Z09fQVdOCW-4" value="パラメータ" style="swimlane;fontStyle=0;childLayout=stackLayout;horizontal=1;startSize=25;horizontalStack=0;resizeParent=1;resizeParentMax=0;resizeLast=0;collapsible=1;marginBottom=0;whiteSpace=wrap;html=1;" vertex="1" parent="KJogN0Vjg7Z09fQVdOCW-3">
          <mxGeometry x="10" y="30" width="190" height="55" as="geometry" />
        </mxCell>
        <mxCell id="KJogN0Vjg7Z09fQVdOCW-5" value="パラメータ１" style="text;strokeColor=none;fillColor=none;align=left;verticalAlign=middle;spacingLeft=4;spacingRight=4;overflow=hidden;points=[[0,0.5],[1,0.5]];portConstraint=eastwest;rotatable=0;whiteSpace=wrap;html=1;" vertex="1" parent="KJogN0Vjg7Z09fQVdOCW-4">
          <mxGeometry y="25" width="190" height="30" as="geometry" />
        </mxCell>
        <mxCell id="KJogN0Vjg7Z09fQVdOCW-6" value="メゾッド" style="swimlane;fontStyle=0;childLayout=stackLayout;horizontal=1;startSize=25;horizontalStack=0;resizeParent=1;resizeParentMax=0;resizeLast=0;collapsible=1;marginBottom=0;whiteSpace=wrap;html=1;" vertex="1" parent="KJogN0Vjg7Z09fQVdOCW-3">
          <mxGeometry x="10" y="100" width="190" height="55" as="geometry" />
        </mxCell>
        <mxCell id="KJogN0Vjg7Z09fQVdOCW-7" value="メゾッド１" style="text;strokeColor=none;fillColor=none;align=left;verticalAlign=middle;spacingLeft=4;spacingRight=4;overflow=hidden;points=[[0,0.5],[1,0.5]];portConstraint=eastwest;rotatable=0;whiteSpace=wrap;html=1;" vertex="1" parent="KJogN0Vjg7Z09fQVdOCW-6">
          <mxGeometry y="25" width="190" height="30" as="geometry" />
        </mxCell>
        <mxCell id="KJogN0Vjg7Z09fQVdOCW-8" value="全てのクラスに設計評価を付ける&#xa;評価段階は以下&#xa;&#xa;１．正常&#xa;・現状の設計は十分に稼働する&#xa;&#xa;２．修正点あり&#xa;・動作自体に問題はないが、&#xa;バグを生み出しやすい設計であったり&#xa;整合性に問題のある設計であったりと&#xa;ミスリードを作り出しかねない設計&#xa;&#xa;３．問題あり&#xa;・実行時の動作に問題がある&#xa;上位層に依存しているなど&#xa;設計上でバグが存在したり、&#xa;バグの発見が難しい環境である状態&#xa;&#xa;４．上位層へ依存&#xa;・上位の層へ依存しており、&#xa;上位層との循環依存関係&#xa;が生まれてしまっている状態" style="swimlane;startSize=0;swimlaneFillColor=default;verticalAlign=top;fontSize=20;" vertex="1" parent="KJogN0Vjg7Z09fQVdOCW-1">
          <mxGeometry x="90" y="290" width="425" height="600" as="geometry" />
        </mxCell>
        <mxCell id="KJogN0Vjg7Z09fQVdOCW-9" value="現在の設計評価　：正常" style="swimlane;whiteSpace=wrap;html=1;swimlaneFillColor=default;fontSize=17;" vertex="1" parent="KJogN0Vjg7Z09fQVdOCW-1">
          <mxGeometry x="95" y="981" width="460" height="60" as="geometry" />
        </mxCell>
        <mxCell id="KJogN0Vjg7Z09fQVdOCW-10" value="" style="rounded=0;whiteSpace=wrap;html=1;align=left;verticalAlign=top;" vertex="1" parent="KJogN0Vjg7Z09fQVdOCW-9">
          <mxGeometry x="10" y="30" width="440" height="30" as="geometry" />
        </mxCell>
        <mxCell id="KJogN0Vjg7Z09fQVdOCW-11" value="上位層" style="rounded=0;whiteSpace=wrap;html=1;fontSize=36;" vertex="1" parent="1">
          <mxGeometry x="1147" y="20" width="990" height="170" as="geometry" />
        </mxCell>
        <mxCell id="KJogN0Vjg7Z09fQVdOCW-12" value="プラットフォーム独立層　ネームスペース＜PLATFORM＞" style="swimlane;whiteSpace=wrap;html=1;swimlaneFillColor=default;startSize=23;" vertex="1" parent="1">
          <mxGeometry x="827" y="350" width="1630" height="1100" as="geometry" />
        </mxCell>
        <mxCell id="KJogN0Vjg7Z09fQVdOCW-13" value="プラットフォーム検出部　ネームスペース＜PLATFORM::DETECTION＞　　　　　" style="swimlane;whiteSpace=wrap;html=1;swimlaneFillColor=default;fontSize=17;align=right;" vertex="1" parent="KJogN0Vjg7Z09fQVdOCW-12">
          <mxGeometry x="325" y="580" width="1195" height="437.5" as="geometry" />
        </mxCell>
        <mxCell id="KJogN0Vjg7Z09fQVdOCW-14" value="現在の設計評価　：正常" style="swimlane;whiteSpace=wrap;html=1;swimlaneFillColor=default;fontSize=17;" vertex="1" parent="KJogN0Vjg7Z09fQVdOCW-13">
          <mxGeometry x="668" y="200" width="460" height="60" as="geometry" />
        </mxCell>
        <mxCell id="KJogN0Vjg7Z09fQVdOCW-15" value="" style="rounded=0;whiteSpace=wrap;html=1;align=left;verticalAlign=top;" vertex="1" parent="KJogN0Vjg7Z09fQVdOCW-14">
          <mxGeometry x="20" y="30" width="420" height="30" as="geometry" />
        </mxCell>
        <mxCell id="KJogN0Vjg7Z09fQVdOCW-16" value="&lt;p style=&quot;line-height: 100%;&quot;&gt;プラットフォーム検出・判定システム　C_Platform_Detection_System&lt;br&gt;&lt;/p&gt;" style="swimlane;whiteSpace=wrap;html=1;swimlaneFillColor=default;" vertex="1" parent="KJogN0Vjg7Z09fQVdOCW-13">
          <mxGeometry x="40" y="75" width="560" height="310" as="geometry" />
        </mxCell>
        <mxCell id="KJogN0Vjg7Z09fQVdOCW-17" value="パラメータ" style="swimlane;fontStyle=0;childLayout=stackLayout;horizontal=1;startSize=25;horizontalStack=0;resizeParent=1;resizeParentMax=0;resizeLast=0;collapsible=1;marginBottom=0;whiteSpace=wrap;html=1;" vertex="1" parent="KJogN0Vjg7Z09fQVdOCW-16">
          <mxGeometry x="10" y="30" width="540" height="115" as="geometry" />
        </mxCell>
        <mxCell id="KJogN0Vjg7Z09fQVdOCW-18" value="ー　コンストラクタ起動用用のシングルトンインスタンス" style="text;strokeColor=none;fillColor=none;align=left;verticalAlign=middle;spacingLeft=4;spacingRight=4;overflow=hidden;points=[[0,0.5],[1,0.5]];portConstraint=eastwest;rotatable=0;whiteSpace=wrap;html=1;" vertex="1" parent="KJogN0Vjg7Z09fQVdOCW-17">
          <mxGeometry y="25" width="540" height="30" as="geometry" />
        </mxCell>
        <mxCell id="KJogN0Vjg7Z09fQVdOCW-19" value="ー　OSの種類を指定する番号" style="text;strokeColor=none;fillColor=none;align=left;verticalAlign=middle;spacingLeft=4;spacingRight=4;overflow=hidden;points=[[0,0.5],[1,0.5]];portConstraint=eastwest;rotatable=0;whiteSpace=wrap;html=1;" vertex="1" parent="KJogN0Vjg7Z09fQVdOCW-17">
          <mxGeometry y="55" width="540" height="30" as="geometry" />
        </mxCell>
        <mxCell id="KJogN0Vjg7Z09fQVdOCW-20" value="ー　レンダリングAPIの種類を指定する番号" style="text;strokeColor=none;fillColor=none;align=left;verticalAlign=middle;spacingLeft=4;spacingRight=4;overflow=hidden;points=[[0,0.5],[1,0.5]];portConstraint=eastwest;rotatable=0;whiteSpace=wrap;html=1;" vertex="1" parent="KJogN0Vjg7Z09fQVdOCW-17">
          <mxGeometry y="85" width="540" height="30" as="geometry" />
        </mxCell>
        <mxCell id="KJogN0Vjg7Z09fQVdOCW-21" value="メゾッド" style="swimlane;fontStyle=0;childLayout=stackLayout;horizontal=1;startSize=25;horizontalStack=0;resizeParent=1;resizeParentMax=0;resizeLast=0;collapsible=1;marginBottom=0;whiteSpace=wrap;html=1;" vertex="1" parent="KJogN0Vjg7Z09fQVdOCW-16">
          <mxGeometry x="10" y="150" width="540" height="145" as="geometry" />
        </mxCell>
        <mxCell id="KJogN0Vjg7Z09fQVdOCW-22" value="ー　コンストラクタ" style="text;strokeColor=none;fillColor=none;align=left;verticalAlign=middle;spacingLeft=4;spacingRight=4;overflow=hidden;points=[[0,0.5],[1,0.5]];portConstraint=eastwest;rotatable=0;whiteSpace=wrap;html=1;" vertex="1" parent="KJogN0Vjg7Z09fQVdOCW-21">
          <mxGeometry y="25" width="540" height="30" as="geometry" />
        </mxCell>
        <mxCell id="KJogN0Vjg7Z09fQVdOCW-23" value="＋　OSの種類を指定する番号のゲッタ　＜静的関数＞" style="text;strokeColor=none;fillColor=none;align=left;verticalAlign=middle;spacingLeft=4;spacingRight=4;overflow=hidden;points=[[0,0.5],[1,0.5]];portConstraint=eastwest;rotatable=0;whiteSpace=wrap;html=1;" vertex="1" parent="KJogN0Vjg7Z09fQVdOCW-21">
          <mxGeometry y="55" width="540" height="30" as="geometry" />
        </mxCell>
        <mxCell id="KJogN0Vjg7Z09fQVdOCW-24" value="＋　レンダリングAPIの種類を指定する番号のゲッタ　＜静的関数＞" style="text;strokeColor=none;fillColor=none;align=left;verticalAlign=middle;spacingLeft=4;spacingRight=4;overflow=hidden;points=[[0,0.5],[1,0.5]];portConstraint=eastwest;rotatable=0;whiteSpace=wrap;html=1;" vertex="1" parent="KJogN0Vjg7Z09fQVdOCW-21">
          <mxGeometry y="85" width="540" height="30" as="geometry" />
        </mxCell>
        <mxCell id="KJogN0Vjg7Z09fQVdOCW-25" value="＋　レンダリングAPIの種類を指定する番号のセッタ　＜静的関数＞" style="text;strokeColor=none;fillColor=none;align=left;verticalAlign=middle;spacingLeft=4;spacingRight=4;overflow=hidden;points=[[0,0.5],[1,0.5]];portConstraint=eastwest;rotatable=0;whiteSpace=wrap;html=1;" vertex="1" parent="KJogN0Vjg7Z09fQVdOCW-21">
          <mxGeometry y="115" width="540" height="30" as="geometry" />
        </mxCell>
        <mxCell id="KJogN0Vjg7Z09fQVdOCW-26" value="" style="shape=link;html=1;rounded=0;entryX=0;entryY=0.5;entryDx=0;entryDy=0;exitX=1;exitY=0.5;exitDx=0;exitDy=0;" edge="1" parent="KJogN0Vjg7Z09fQVdOCW-13" source="KJogN0Vjg7Z09fQVdOCW-16" target="KJogN0Vjg7Z09fQVdOCW-14">
          <mxGeometry width="100" relative="1" as="geometry">
            <mxPoint x="2711" y="1695" as="sourcePoint" />
            <mxPoint x="2811" y="1695" as="targetPoint" />
          </mxGeometry>
        </mxCell>
        <mxCell id="KJogN0Vjg7Z09fQVdOCW-27" value="&lt;p style=&quot;line-height: 90%;&quot;&gt;&lt;font style=&quot;font-size: 11px;&quot;&gt;OS制御システムとレンダリングAPI用システムの生成、削除を行うシステム&lt;/font&gt;&lt;span style=&quot;font-size: 11px; background-color: initial;&quot;&gt;C_OS_Manager_And_Rendering_API_Initilize_And_Release_System&lt;/span&gt;&lt;/p&gt;" style="swimlane;whiteSpace=wrap;html=1;swimlaneFillColor=default;startSize=23;" vertex="1" parent="KJogN0Vjg7Z09fQVdOCW-12">
          <mxGeometry x="365" y="130" width="560" height="250" as="geometry" />
        </mxCell>
        <mxCell id="KJogN0Vjg7Z09fQVdOCW-28" value="パラメータ" style="swimlane;fontStyle=0;childLayout=stackLayout;horizontal=1;startSize=25;horizontalStack=0;resizeParent=1;resizeParentMax=0;resizeLast=0;collapsible=1;marginBottom=0;whiteSpace=wrap;html=1;" vertex="1" parent="KJogN0Vjg7Z09fQVdOCW-27">
          <mxGeometry x="10" y="30" width="540" height="55" as="geometry" />
        </mxCell>
        <mxCell id="KJogN0Vjg7Z09fQVdOCW-29" value="メゾッド" style="swimlane;fontStyle=0;childLayout=stackLayout;horizontal=1;startSize=25;horizontalStack=0;resizeParent=1;resizeParentMax=0;resizeLast=0;collapsible=1;marginBottom=0;whiteSpace=wrap;html=1;" vertex="1" parent="KJogN0Vjg7Z09fQVdOCW-27">
          <mxGeometry x="10" y="105" width="540" height="115" as="geometry" />
        </mxCell>
        <mxCell id="KJogN0Vjg7Z09fQVdOCW-30" value="ー　コンストラクタ、インスタンス化できなくするために隠蔽" style="text;strokeColor=none;fillColor=none;align=left;verticalAlign=middle;spacingLeft=4;spacingRight=4;overflow=hidden;points=[[0,0.5],[1,0.5]];portConstraint=eastwest;rotatable=0;whiteSpace=wrap;html=1;" vertex="1" parent="KJogN0Vjg7Z09fQVdOCW-29">
          <mxGeometry y="25" width="540" height="30" as="geometry" />
        </mxCell>
        <mxCell id="KJogN0Vjg7Z09fQVdOCW-43" value="＋　レンダリングAPIとOS制御用システムの生成　＜静的関数＞" style="text;strokeColor=none;fillColor=none;align=left;verticalAlign=middle;spacingLeft=4;spacingRight=4;overflow=hidden;points=[[0,0.5],[1,0.5]];portConstraint=eastwest;rotatable=0;whiteSpace=wrap;html=1;" vertex="1" parent="KJogN0Vjg7Z09fQVdOCW-29">
          <mxGeometry y="55" width="540" height="30" as="geometry" />
        </mxCell>
        <mxCell id="KJogN0Vjg7Z09fQVdOCW-35" value="＋　レンダリングAPIとOS制御用システムの解放　＜静的関数＞" style="text;strokeColor=none;fillColor=none;align=left;verticalAlign=middle;spacingLeft=4;spacingRight=4;overflow=hidden;points=[[0,0.5],[1,0.5]];portConstraint=eastwest;rotatable=0;whiteSpace=wrap;html=1;" vertex="1" parent="KJogN0Vjg7Z09fQVdOCW-29">
          <mxGeometry y="85" width="540" height="30" as="geometry" />
        </mxCell>
        <mxCell id="KJogN0Vjg7Z09fQVdOCW-36" value="" style="endArrow=classic;html=1;rounded=0;strokeWidth=8;exitX=0.5;exitY=1;exitDx=0;exitDy=0;entryX=0.5;entryY=0;entryDx=0;entryDy=0;" edge="1" parent="KJogN0Vjg7Z09fQVdOCW-12" source="KJogN0Vjg7Z09fQVdOCW-27" target="KJogN0Vjg7Z09fQVdOCW-16">
          <mxGeometry width="50" height="50" relative="1" as="geometry">
            <mxPoint x="971" y="609" as="sourcePoint" />
            <mxPoint x="790" y="360" as="targetPoint" />
            <Array as="points" />
          </mxGeometry>
        </mxCell>
        <mxCell id="KJogN0Vjg7Z09fQVdOCW-37" value="現在の設計評価　：正常" style="swimlane;whiteSpace=wrap;html=1;swimlaneFillColor=default;fontSize=17;" vertex="1" parent="KJogN0Vjg7Z09fQVdOCW-12">
          <mxGeometry x="1000" y="221.25" width="460" height="67.5" as="geometry" />
        </mxCell>
        <mxCell id="KJogN0Vjg7Z09fQVdOCW-38" value="" style="rounded=0;whiteSpace=wrap;html=1;align=left;verticalAlign=top;" vertex="1" parent="KJogN0Vjg7Z09fQVdOCW-37">
          <mxGeometry x="20" y="30" width="420" height="20" as="geometry" />
        </mxCell>
        <mxCell id="KJogN0Vjg7Z09fQVdOCW-39" value="" style="shape=link;html=1;rounded=0;entryX=0;entryY=0.5;entryDx=0;entryDy=0;exitX=1;exitY=0.5;exitDx=0;exitDy=0;" edge="1" parent="KJogN0Vjg7Z09fQVdOCW-12" source="KJogN0Vjg7Z09fQVdOCW-27" target="KJogN0Vjg7Z09fQVdOCW-37">
          <mxGeometry width="100" relative="1" as="geometry">
            <mxPoint x="925" y="270" as="sourcePoint" />
            <mxPoint x="3136" y="1725" as="targetPoint" />
          </mxGeometry>
        </mxCell>
        <mxCell id="KJogN0Vjg7Z09fQVdOCW-40" value="" style="endArrow=classic;html=1;rounded=0;exitX=0.5;exitY=1;exitDx=0;exitDy=0;entryX=0.5;entryY=0;entryDx=0;entryDy=0;strokeWidth=8;" edge="1" parent="1" source="KJogN0Vjg7Z09fQVdOCW-11" target="KJogN0Vjg7Z09fQVdOCW-12">
          <mxGeometry width="50" height="50" relative="1" as="geometry">
            <mxPoint x="2882" y="50" as="sourcePoint" />
            <mxPoint x="2237" y="740" as="targetPoint" />
            <Array as="points" />
          </mxGeometry>
        </mxCell>
        <mxCell id="KJogN0Vjg7Z09fQVdOCW-41" value="下位層&lt;br&gt;プラットフォーム部&lt;br&gt;レンダリング部" style="rounded=0;whiteSpace=wrap;html=1;fontSize=36;" vertex="1" parent="1">
          <mxGeometry x="1147" y="1720" width="990" height="170" as="geometry" />
        </mxCell>
        <mxCell id="KJogN0Vjg7Z09fQVdOCW-42" value="" style="endArrow=classic;html=1;rounded=0;strokeWidth=8;exitX=0.5;exitY=1;exitDx=0;exitDy=0;entryX=0.5;entryY=0;entryDx=0;entryDy=0;" edge="1" parent="1" source="KJogN0Vjg7Z09fQVdOCW-12" target="KJogN0Vjg7Z09fQVdOCW-41">
          <mxGeometry width="50" height="50" relative="1" as="geometry">
            <mxPoint x="1547" y="3530" as="sourcePoint" />
            <mxPoint x="1787" y="1770" as="targetPoint" />
            <Array as="points" />
          </mxGeometry>
        </mxCell>
      </root>
    </mxGraphModel>
  </diagram>
</mxfile>
